<svg width="17" height="16" viewBox="0 0 17 16" fill="none" xmlns="http://www.w3.org/2000/svg">
<g clip-path="url(#clip0_55791_1031)">
<path d="M6.70021 4.69703L8.5 1.28579L10.2998 4.69703C10.459 4.9987 10.7491 5.20947 11.0851 5.26762L14.8856 5.92519L12.1975 8.69103C11.9598 8.93563 11.8489 9.27666 11.8975 9.61427L12.4465 13.4319L8.98537 11.7301C8.67929 11.5795 8.32071 11.5796 8.01463 11.7301L4.55348 13.4319L5.1025 9.61427C5.15105 9.27666 5.04024 8.93563 4.80252 8.69103L2.1144 5.92519L5.91486 5.26762C6.25095 5.20947 6.54104 4.9987 6.70021 4.69703ZM15.0177 5.78928L15.0175 5.78947L15.0177 5.78928ZM4.3834 13.5155C4.38344 13.5155 4.38349 13.5155 4.38353 13.5155L4.3834 13.5155Z" fill="#262626" fill-opacity="0.05" stroke="#F4F4F4" stroke-width="1.2"/>
</g>
<defs>
<clipPath id="clip0_55791_1031">
<rect width="16" height="16" fill="white" transform="translate(0.5)"/>
</clipPath>
</defs>
</svg>
