<svg width="18" height="18" viewBox="0 0 18 18" fill="none" xmlns="http://www.w3.org/2000/svg">
<path d="M8.99989 11.25C6.62233 11.25 4.50799 12.398 3.16188 14.1795C2.87217 14.5629 2.72731 14.7546 2.73205 15.0137C2.73571 15.2139 2.86141 15.4664 3.01891 15.59C3.22278 15.75 3.50529 15.75 4.07031 15.75H13.9295C14.4945 15.75 14.777 15.75 14.9809 15.59C15.1384 15.4664 15.2641 15.2139 15.2677 15.0137C15.2725 14.7546 15.1276 14.5629 14.8379 14.1795C13.4918 12.398 11.3774 11.25 8.99989 11.25Z" fill="white" stroke="white" stroke-width="2" stroke-linecap="round" stroke-linejoin="round"/>
<path d="M9 9C10.864 9 12.375 7.48896 12.375 5.625C12.375 3.76104 10.864 2.25 9 2.25C7.13604 2.25 5.625 3.76104 5.625 5.625C5.625 7.48896 7.13604 9 9 9Z" fill="white" stroke="white" stroke-width="2" stroke-linecap="round" stroke-linejoin="round"/>
</svg>
